<svg id="Logos" xmlns="http://www.w3.org/2000/svg" viewBox="0 0 816.92 366.52"><defs><style>.cls-1{fill:#07a9e0;}</style></defs><polygon class="cls-1" points="209.16 126.73 186.06 167.27 184.61 167.27 161.68 126.73 115.33 126.73 163.78 206.35 163.78 239.78 206.09 239.78 206.09 206.35 254.54 126.73 209.16 126.73"/><path class="cls-1" d="M309.12,122.54c-41,0-66.86,22.93-66.86,60.72S268.1,244,309.12,244,376,221.05,376,183.26,350.14,122.54,309.12,122.54Zm0,86.88c-16,0-25.52-9.53-25.52-26.16s9.53-26.16,25.52-26.16,25.68,9.53,25.68,26.16S325.11,209.42,309.12,209.42Z"/><path class="cls-1" d="M382.76,183.58c0,37.79,25.35,59.43,66.53,59.43,19.87,0,35.53-5.49,44.42-10.65v-38.6h-.33C480.79,203,469,208,454.3,208c-16.63,0-29.23-8.24-29.23-24.71,0-16,12.27-24.87,29.39-24.87,14.21,0,25.68,5.17,38.92,14.05h.33V134.33c-10.83-6.14-24.55-10.82-44.09-10.82C409.73,123.51,382.76,145.79,382.76,183.58Z"/><path class="cls-1" d="M567.66,122.54c-41,0-66.86,22.93-66.86,60.72S526.64,244,567.66,244s66.86-22.93,66.86-60.72S608.68,122.54,567.66,122.54Zm0,86.88c-16,0-25.51-9.53-25.51-26.16s9.52-26.16,25.51-26.16,25.68,9.53,25.68,26.16S583.65,209.42,567.66,209.42Z"/><path class="cls-1" d="M681.62,147c0-5-2.85-7.88-9.52-7.88H660.5v21.46h5.37v-6h5.54l4.84,6h6.06v-.26l-5.45-6.57A6.81,6.81,0,0,0,681.62,147Zm-9.78,3.11h-6v-6.4h6.06c2.94,0,4.24.95,4.24,3.2S674.87,150.11,671.84,150.11Z"/><path class="cls-1" d="M670.2,126.66c-15.24,0-25.1,9.52-25.1,23.28s9.78,23.37,25.1,23.37,25.27-9.52,25.27-23.37S685.6,126.66,670.2,126.66Zm0,40.93c-11.34,0-18.61-6.66-18.61-17.65s7.27-17.57,18.61-17.57,18.69,6.66,18.69,17.57S681.62,167.59,670.2,167.59Z"/></svg>